#!OML:ASF H:\Dans Jumps\Project 1\Capture day 1\Session 1\subject.ASF
:FULLY-SPECIFIED
:DEGREES
131
root 0.27135 15.4204 -15.8555 18.4325 -0.895496 -1.71668
lowerback 16.8365 0.234534 -0.598295
upperback 8.14118 0.265668 2.18909
thorax -0.775462 0.0679915 2.59382
lowerneck -17.3624 0.462519 -1.42751
upperneck 15.5977 1.23081 -1.23023
head 7.66768 0.376192 -0.0314726
rclavicle 1.03368e-014 1.8487e-014
rhumerus -44.5196 -14.7524 -69.7333
rradius 26.177
rwrist 26.7318
rhand -18.0915 -25.6804
rfingers 7.12502
rthumb 8.18201 -55.502
lclavicle 1.03368e-014 1.8487e-014
lhumerus -39.9775 -1.72097 85.6538
lradius 20.4544
lwrist 16.6577
lhand -28.8598 -4.91304
lfingers 7.12502
lthumb -2.21633 25.0552
rfemur -58.8986 -3.72998 21.6143
rtibia 66.6256
rfoot -27.5809 -9.4716
rtoes -1.02777
lfemur -58.6212 8.39937 -21.3972
ltibia 66.0921
lfoot -24.9852 11.7789
ltoes -11.5454
132
root 0.271723 15.3622 -15.8688 18.7771 -0.846459 -1.75218
lowerback 17.0676 0.243038 -0.619581
upperback 8.15462 0.275689 2.23149
thorax -0.881834 0.0721707 2.64983
lowerneck -17.5412 0.442826 -1.43101
upperneck 15.2503 1.20082 -1.22066
head 7.58351 0.36588 -0.0311927
rclavicle 7.35503e-015 7.95139e-016
rhumerus -45.1991 -14.8202 -69.3515
rradius 26.0697
rwrist 26.8432
rhand -17.9493 -25.6488
rfingers 7.12502
rthumb 8.31922 -55.465
lclavicle 7.35503e-015 7.95139e-016
lhumerus -40.6867 -1.52054 85.6209
lradius 20.3686
lwrist 16.6336
lhand -28.5806 -4.68233
lfingers 7.12502
lthumb -1.9467 25.2885
rfemur -59.7825 -3.6701 21.6686
rtibia 67.4111
rfoot -27.8855 -9.77926
rtoes -1.25586
lfemur -59.5346 8.33344 -21.413
ltibia 66.8916
lfoot -25.1777 11.9636
ltoes -11.6311
133
root 0.271706 15.3054 -15.8814 19.1251 -0.79801 -1.78232
lowerback 17.3079 0.252359 -0.651398
upperback 8.16591 0.285224 2.2724
thorax -0.995104 0.0759802 2.71043
lowerneck -17.7258 0.42308 -1.43223
upperneck 14.9133 1.17102 -1.2134
head 7.50383 0.355379 -0.0320104
rclavicle -1.39149e-015 -5.96354e-015
rhumerus -45.851 -14.8995 -68.9692
rradius 25.9476
rwrist 26.9936
rhand -17.8051 -25.592
rfingers 7.12502
rthumb 8.45846 -55.4026
lclavicle -1.39149e-015 -5.96354e-015
lhumerus -41.3762 -1.30832 85.578
lradius 20.2572
lwrist 16.5785
lhand -28.23 -4.45702
lfingers 7.12502
lthumb -1.60808 25.5167
rfemur -60.6565 -3.60433 21.7156
rtibia 68.1724
rfoot -28.169 -10.0719
rtoes -1.44781
lfemur -60.4348 8.2689 -21.433
ltibia 67.6624
lfoot -25.3515 12.1466
ltoes -11.703
134
root 0.271341 15.2502 -15.8934 19.4818 -0.754171 -1.80545
lowerback 17.5561 0.263454 -0.695346
upperback 8.16898 0.29519 2.30952
thorax -1.12103 0.080007 2.77394
lowerneck -17.9147 0.40462 -1.42418
upperneck 14.5923 1.14214 -1.21235
head 7.43032 0.345009 -0.0362579
rclavicle -2.5842e-015 -3.1408e-014
rhumerus -46.4817 -14.9904 -68.5881
rradius 25.8167
rwrist 27.1787
rhand -17.6413 -25.53
rfingers 7.12502
rthumb 8.61653 -55.3341
lclavicle -2.5842e-015 -3.1408e-014
lhumerus -42.0604 -1.10153 85.5352
lradius 20.145
lwrist 16.4971
lhand -27.9045 -4.26605
lfingers 7.12502
lthumb -1.29366 25.7098
rfemur -61.5254 -3.52988 21.7517
rtibia 68.9089
rfoot -28.4344 -10.3578
rtoes -1.60309
lfemur -61.3254 8.20158 -21.4587
ltibia 68.4025
lfoot -25.5068 12.3439
ltoes -11.7938
135
root 0.270635 15.1968 -15.9045 19.8506 -0.712912 -1.81395
lowerback 17.8171 0.275619 -0.755671
upperback 8.15509 0.304029 2.34086
thorax -1.27147 0.0836616 2.84099
lowerneck -18.1063 0.384959 -1.40827
upperneck 14.2945 1.11031 -1.21256
head 7.36492 0.333222 -0.0425048
rclavicle -1.11319e-014 -1.15295e-014
rhumerus -47.0958 -15.0838 -68.2113
rradius 25.6699
rwrist 27.3518
rhand -17.4865 -25.4584
rfingers 7.12502
rthumb 8.76594 -55.2563
lclavicle -1.11319e-014 -1.15295e-014
lhumerus -42.7462 -0.902313 85.4917
lradius 20.0354
lwrist 16.4094
lhand -27.6422 -4.1232
lfingers 7.12502
lthumb -1.04035 25.854
rfemur -62.3901 -3.4514 21.7688
rtibia 69.6205
rfoot -28.6888 -10.6452
rtoes -1.72001
lfemur -62.2053 8.1225 -21.496
ltibia 69.1084
lfoot -25.6467 12.5605
ltoes -11.8952
136
root 0.269516 15.1455 -15.9146 20.2348 -0.674261 -1.81214
lowerback 18.0862 0.290149 -0.82907
upperback 8.12654 0.313744 2.36842
thorax -1.44161 0.0879792 2.91146
lowerneck -18.3059 0.367724 -1.38237
upperneck 14.0161 1.08131 -1.22206
head 7.30737 0.32213 -0.0530652
rclavicle -3.77691e-015 -4.07509e-014
rhumerus -47.6945 -15.2001 -67.8253
rradius 25.5167
rwrist 27.5483
rhand -17.3093 -25.3746
rfingers 7.12502
rthumb 8.93692 -55.1653
lclavicle -3.77691e-015 -4.07509e-014
lhumerus -43.4132 -0.701979 85.442
lradius 19.9189
lwrist 16.3094
lhand -27.4963 -4.08184
lfingers 7.12502
lthumb -0.899384 25.896
rfemur -63.2509 -3.36389 21.7706
rtibia 70.3051
rfoot -28.9348 -10.945
rtoes -1.78877
lfemur -63.0764 8.03292 -21.5405
ltibia 69.7792
lfoot -25.7738 12.7963
ltoes -11.9855
137
root 0.268014 15.0965 -15.9239 20.6434 -0.636119 -1.79873
lowerback 18.3581 0.306439 -0.915219
upperback 8.07713 0.323584 2.3934
thorax -1.63535 0.0927619 2.98656
lowerneck -18.5153 0.352298 -1.34842
upperneck 13.76 1.05508 -1.24247
head 7.25885 0.311397 -0.0681524
rclavicle -2.38542e-015 1.43125e-014
rhumerus -48.2782 -15.3335 -67.4304
rradius 25.3561
rwrist 27.7479
rhand -17.1187 -25.288
rfingers 7.12502
rthumb 9.12085 -55.0708
lclavicle -2.38542e-015 1.43125e-014
lhumerus -44.0612 -0.495284 85.3823
lradius 19.7976
lwrist 16.1967
lhand -27.3616 -4.01664
lfingers 7.12502
lthumb -0.769317 25.9617
rfemur -64.1161 -3.2697 21.7571
rtibia 70.9606
rfoot -29.174 -11.2573
rtoes -1.80365
lfemur -63.947 7.92992 -21.5941
ltibia 70.4124
lfoot -25.8855 13.0533
ltoes -12.0307
138
root 0.266298 15.0503 -15.932 21.0714 -0.593905 -1.77508
lowerback 18.6338 0.32272 -1.00728
upperback 8.01216 0.332182 2.4165
thorax -1.84743 0.0974535 3.06343
lowerneck -18.7345 0.341629 -1.30937
upperneck 13.5136 1.03607 -1.27371
head 7.21513 0.303126 -0.0867638
rclavicle 6.16232e-015 1.05356e-014
rhumerus -48.8401 -15.48 -67.0349
rradius 25.1911
rwrist 27.9481
rhand -16.9199 -25.2143
rfingers 7.12502
rthumb 9.31261 -54.9886
lclavicle 6.16232e-015 1.05356e-014
lhumerus -44.6674 -0.269032 85.301
lradius 19.6525
lwrist 16.0532
lhand -27.2092 -3.91119
lfingers 7.12502
lthumb -0.622173 26.0676
rfemur -64.9752 -3.17299 21.7303
rtibia 71.5828
rfoot -29.4065 -11.5796
rtoes -1.76631
lfemur -64.8071 7.81155 -21.6538
ltibia 71.0069
lfoot -25.981 13.3379
ltoes -11.9954
139
root 0.26433 15.0067 -15.9388 21.5197 -0.546286 -1.74467
lowerback 18.9111 0.339697 -1.1011
upperback 7.93224 0.34112 2.43975
thorax -2.07631 0.102924 3.1416
lowerneck -18.958 0.333993 -1.27451
upperneck 13.2669 1.02253 -1.30722
head 7.17196 0.296957 -0.104806
rclavicle -1.59028e-015 7.35503e-015
rhumerus -49.3769 -15.6456 -66.6364
rradius 25.0226
rwrist 28.1574
rhand -16.7284 -25.1596
rfingers 7.12502
rthumb 9.49738 -54.9256
lclavicle -1.59028e-015 7.35503e-015
lhumerus -45.219 -0.00900681 85.1856
lradius 19.471
lwrist 15.8497
lhand -26.8994 -3.65536
lfingers 7.12502
lthumb -0.3229 26.3241
rfemur -65.8285 -3.07093 21.6932
rtibia 72.1698
rfoot -29.6309 -11.9012
rtoes -1.66669
lfemur -65.6589 7.68111 -21.7176
ltibia 71.5617
lfoot -26.0465 13.6718
ltoes -11.908
140
root 0.262225 14.9659 -15.9445 21.9836 -0.49653 -1.71184
lowerback 19.1925 0.35749 -1.19222
upperback 7.83699 0.351262 2.46323
thorax -2.32371 0.10974 3.21847
lowerneck -19.1712 0.325897 -1.25877
upperneck 13.0092 1.01071 -1.32816
head 7.12317 0.291937 -0.115455
rclavicle -2.5842e-015 1.2921e-014
rhumerus -49.8856 -15.824 -66.2412
rradius 24.8476
rwrist 28.3777
rhand -16.5653 -25.1421
rfingers 7.12502
rthumb 9.65477 -54.9009
lclavicle -2.5842e-015 1.2921e-014
lhumerus -45.717 0.286892 85.0325
lradius 19.253
lwrist 15.572
lhand -26.2771 -3.13714
lfingers 7.12502
lthumb 0.278106 26.8424
rfemur -66.6692 -2.95929 21.6479
rtibia 72.7183
rfoot -29.849 -12.2065
rtoes -1.50544
lfemur -66.4958 7.54438 -21.7797
ltibia 72.078
lfoot -26.0897 14.0472
ltoes -11.732
141
root 0.260037 14.9281 -15.9487 22.4524 -0.442043 -1.67891
lowerback 19.4865 0.376278 -1.27446
upperback 7.73152 0.363822 2.48638
thorax -2.58864 0.118559 3.28968
lowerneck -19.3725 0.314079 -1.26826
upperneck 12.7335 0.995692 -1.32396
head 7.06612 0.286728 -0.114193
rclavicle 4.96962e-015 1.09332e-014
rhumerus -50.3575 -16.0152 -65.8585
rradius 24.6677
rwrist 28.569
rhand -16.4583 -25.1425
rfingers 7.12502
rthumb 9.75799 -54.8964
lclavicle 4.96962e-015 1.09332e-014
lhumerus -46.1448 0.631714 84.8239
lradius 18.9699
lwrist 15.1865
lhand -25.5022 -2.6068
lfingers 7.12502
lthumb 1.02657 27.3705
rfemur -67.4832 -2.83828 21.5954
rtibia 73.2269
rfoot -30.0618 -12.4863
rtoes -1.30519
lfemur -67.3049 7.40325 -21.8357
ltibia 72.5555
lfoot -26.1133 14.4579
ltoes -11.4926
142
root 0.257893 14.893 -15.9514 22.9226 -0.388638 -1.64977
lowerback 19.7939 0.396968 -1.34492
upperback 7.61672 0.380393 2.50712
thorax -2.8707 0.130182 3.351
lowerneck -19.5693 0.299159 -1.29527
upperneck 12.4507 0.977668 -1.29961
head 7.0057 0.281219 -0.103887
rclavicle 5.96354e-016 -2.18663e-014
rhumerus -50.7887 -16.225 -65.4872
rradius 24.4828
rwrist 28.7558
rhand -16.3637 -25.1399
rfingers 7.12502
rthumb 9.84928 -54.8895
lclavicle 5.96354e-016 -2.18663e-014
lhumerus -46.5004 1.02128 84.5606
lradius 18.6368
lwrist 14.6929
lhand -24.7809 -2.20143
lfingers 7.12502
lthumb 1.72317 27.7714
rfemur -68.2676 -2.70082 21.5363
rtibia 73.6955
rfoot -30.2656 -12.7374
rtoes -1.10422
lfemur -68.0846 7.26566 -21.8849
ltibia 72.9957
lfoot -26.1199 14.8953
ltoes -11.237
